<svg width="93" height="93" viewBox="0 0 93 93" fill="none" xmlns="http://www.w3.org/2000/svg">
<rect width="93" height="93" fill="#212121"/>
<path d="M60 46.6L67.8 38.8C69.6 37 69.6 34.2 67.8 32.4L56.7 43.5L54.7 41.5L62.6 33.6C64.4 31.8 64.4 29 62.6 27.2L51.4 38.4L49.4 36.4L57.4 28.4C59.2 26.6 59.2 23.8 57.4 22L46.1 33.1L38.9 25.8C37.1 24 34.3 24 32.5 25.8L42.9 36.2L40.8 38.3L33.6 31.1C31.8 29.3 29 29.3 27.2 31.1L37.6 41.5L35.6 43.5L28.4 36.3C26.6 34.5 23.8 34.5 22 36.3L32.2 46.5L24.4 54.3C22.6 56.1 22.6 58.9 24.4 60.7L35.5 49.6L37.5 51.6L29.6 59.5C27.8 61.3 27.8 64.1 29.6 65.9L40.8 54.7L42.8 56.7L34.8 64.7C33 66.5 33 69.3 34.8 71.1L46 59.9L53.2 67.2C55 69 57.8 69 59.6 67.2L49.2 56.8L51.3 54.7L58.5 61.9C60.3 63.7 63.1 63.7 64.9 61.9L54.5 51.5L56.5 49.5L63.7 56.7C65.5 58.5 68.3 58.5 70.1 56.7L60 46.6ZM46.1 39.4L48.1 41.4L46 43.5L44 41.5L46.1 39.4ZM40.8 48.4L39 46.6L40.8 44.8L42.6 46.7L40.8 48.4ZM46.1 53.6L44.1 51.6L46.2 49.5L48.2 51.5L46.1 53.6ZM49.6 46.5L51.4 44.7L53.2 46.5L51.4 48.3L49.6 46.5Z" fill="white"/>
</svg>
