<svg width="112" height="10" viewBox="0 0 112 10" fill="none" xmlns="http://www.w3.org/2000/svg">
<path d="M0.5625 9.00089V0.273615H2.93182V7.0918H6.46023V9.00089H0.5625Z" fill="#212121"/>
<path d="M12.1027 0.273615H14.4721V5.86452C14.4721 6.5293 14.313 7.10458 13.9948 7.59038C13.6794 8.07333 13.2391 8.44691 12.6738 8.71112C12.1084 8.97248 11.4522 9.10316 10.705 9.10316C9.95217 9.10316 9.29308 8.97248 8.72774 8.71112C8.1624 8.44691 7.72206 8.07333 7.40672 7.59038C7.09422 7.10458 6.93797 6.5293 6.93797 5.86452V0.273615H9.30729V5.65998C9.30729 5.92987 9.36695 6.17134 9.48626 6.38441C9.60558 6.59464 9.77035 6.75941 9.98058 6.87873C10.1937 6.99805 10.4351 7.05771 10.705 7.05771C10.9777 7.05771 11.2192 6.99805 11.4294 6.87873C11.6397 6.75941 11.8044 6.59464 11.9238 6.38441C12.0431 6.17134 12.1027 5.92987 12.1027 5.65998V0.273615Z" fill="#212121"/>
<path d="M23.2659 3.54634H20.8624C20.8454 3.34748 20.7999 3.16708 20.7261 3.00515C20.6551 2.84322 20.5556 2.70401 20.4278 2.58754C20.3028 2.46822 20.1508 2.37731 19.9718 2.31481C19.7928 2.24947 19.5897 2.2168 19.3624 2.2168C18.9647 2.2168 18.6281 2.31339 18.3525 2.50657C18.0798 2.69975 17.8724 2.97674 17.7303 3.33754C17.5911 3.69833 17.5215 4.13157 17.5215 4.63725C17.5215 5.17134 17.5926 5.61879 17.7346 5.97958C17.8795 6.33754 18.0883 6.60742 18.361 6.78924C18.6338 6.96822 18.9619 7.05771 19.3454 7.05771C19.5641 7.05771 19.7602 7.03072 19.9335 6.97674C20.1068 6.91992 20.2573 6.83896 20.3852 6.73384C20.513 6.62873 20.6167 6.50231 20.6963 6.35458C20.7786 6.20401 20.834 6.03498 20.8624 5.84748L23.2659 5.86452C23.2374 6.23384 23.1338 6.61026 22.9548 6.99379C22.7758 7.37447 22.5215 7.72674 22.192 8.0506C21.8653 8.37163 21.4605 8.63015 20.9775 8.82617C20.4945 9.02219 19.9335 9.12021 19.2943 9.12021C18.4931 9.12021 17.7744 8.94833 17.138 8.60458C16.5045 8.26083 16.0031 7.75515 15.6337 7.08754C15.2673 6.41992 15.084 5.60316 15.084 4.63725C15.084 3.66566 15.2715 2.84748 15.6465 2.18271C16.0215 1.51509 16.5272 1.01083 17.1636 0.669922C17.7999 0.326172 18.5102 0.154297 19.2943 0.154297C19.8454 0.154297 20.3525 0.229581 20.8156 0.380149C21.2786 0.530717 21.6849 0.750888 22.0343 1.04066C22.3838 1.32759 22.665 1.68129 22.8781 2.10174C23.0911 2.52219 23.2204 3.00373 23.2659 3.54634Z" fill="#212121"/>
<path d="M23.8608 9.00089V0.273615H26.2301V3.68271H29.3665V0.273615H31.7358V9.00089H29.3665V5.5918H26.2301V9.00089H23.8608Z" fill="#212121"/>
<path d="M34.2914 9.00089V0.273615H40.4278V2.18271H36.6607V3.68271H40.0528V5.5918H36.6607V9.00089H34.2914Z" fill="#212121"/>
<path d="M40.8192 9.00089V0.273615H44.5863C45.234 0.273615 45.8008 0.391513 46.2865 0.627308C46.7723 0.863104 47.1502 1.20259 47.4201 1.64577C47.69 2.08896 47.8249 2.62021 47.8249 3.23952C47.8249 3.86452 47.6857 4.39151 47.4073 4.82049C47.1317 5.24947 46.7439 5.57333 46.2439 5.79208C45.7468 6.01083 45.1658 6.12021 44.501 6.12021H42.251V4.2793H44.0238C44.3022 4.2793 44.5394 4.24521 44.7354 4.17702C44.9343 4.106 45.0863 3.99379 45.1914 3.84038C45.2993 3.68697 45.3533 3.48668 45.3533 3.23952C45.3533 2.98952 45.2993 2.7864 45.1914 2.63015C45.0863 2.47106 44.9343 2.35458 44.7354 2.28072C44.5394 2.20401 44.3022 2.16566 44.0238 2.16566H43.1885V9.00089H40.8192ZM45.9329 4.99521L48.1147 9.00089H45.5408L43.4101 4.99521H45.9329Z" fill="#212121"/>
<path d="M50.6219 9.00089H48.0651L50.9458 0.273615H54.1844L57.0651 9.00089H54.5083L52.5992 2.67702H52.531L50.6219 9.00089ZM50.1446 5.55771H54.9514V7.33043H50.1446V5.55771Z" fill="#212121"/>
<path d="M57.4256 0.273615H60.3745L62.4029 5.2168H62.5052L64.5336 0.273615H67.4824V9.00089H65.1643V3.95543H65.0961L63.1529 8.93271H61.7552L59.812 3.92134H59.7438V9.00089H57.4256V0.273615Z" fill="#212121"/>
<path d="M68.1253 9.00089V0.273615H74.4151V2.18271H70.4946V3.68271H74.0912V5.5918H70.4946V7.0918H74.398V9.00089H68.1253Z" fill="#212121"/>
<path d="M77.3261 9.00089L74.7522 0.273615H77.3942L78.5874 5.64293H78.6556L80.0704 0.273615H82.1499L83.5647 5.65998H83.6329L84.8261 0.273615H87.4681L84.8942 9.00089H82.6272L81.1442 4.12589H81.0761L79.5931 9.00089H77.3261Z" fill="#212121"/>
<path d="M95.6589 4.63725C95.6589 5.60884 95.47 6.42844 95.0922 7.09606C94.7143 7.76083 94.2044 8.26509 93.5623 8.60884C92.9203 8.94975 92.2044 9.12021 91.4146 9.12021C90.6191 9.12021 89.9004 8.94833 89.2584 8.60458C88.6191 8.25799 88.1106 7.75231 87.7328 7.08754C87.3578 6.41992 87.1703 5.60316 87.1703 4.63725C87.1703 3.66566 87.3578 2.84748 87.7328 2.18271C88.1106 1.51509 88.6191 1.01083 89.2584 0.669922C89.9004 0.326172 90.6191 0.154297 91.4146 0.154297C92.2044 0.154297 92.9203 0.326172 93.5623 0.669922C94.2044 1.01083 94.7143 1.51509 95.0922 2.18271C95.47 2.84748 95.6589 3.66566 95.6589 4.63725ZM93.2214 4.63725C93.2214 4.11452 93.1518 3.67418 93.0126 3.31623C92.8762 2.95543 92.6731 2.68271 92.4032 2.49805C92.1362 2.31055 91.8066 2.2168 91.4146 2.2168C91.0226 2.2168 90.6916 2.31055 90.4217 2.49805C90.1547 2.68271 89.9515 2.95543 89.8123 3.31623C89.676 3.67418 89.6078 4.11452 89.6078 4.63725C89.6078 5.15998 89.676 5.60174 89.8123 5.96254C89.9515 6.32049 90.1547 6.59322 90.4217 6.78072C90.6916 6.96538 91.0226 7.05771 91.4146 7.05771C91.8066 7.05771 92.1362 6.96538 92.4032 6.78072C92.6731 6.59322 92.8762 6.32049 93.0126 5.96254C93.1518 5.60174 93.2214 5.15998 93.2214 4.63725Z" fill="#212121"/>
<path d="M96.2752 9.00089V0.273615H100.042C100.69 0.273615 101.257 0.391513 101.742 0.627308C102.228 0.863104 102.606 1.20259 102.876 1.64577C103.146 2.08896 103.281 2.62021 103.281 3.23952C103.281 3.86452 103.142 4.39151 102.863 4.82049C102.588 5.24947 102.2 5.57333 101.7 5.79208C101.203 6.01083 100.622 6.12021 99.957 6.12021H97.707V4.2793H99.4797C99.7581 4.2793 99.9953 4.24521 100.191 4.17702C100.39 4.106 100.542 3.99379 100.647 3.84038C100.755 3.68697 100.809 3.48668 100.809 3.23952C100.809 2.98952 100.755 2.7864 100.647 2.63015C100.542 2.47106 100.39 2.35458 100.191 2.28072C99.9953 2.20401 99.7581 2.16566 99.4797 2.16566H98.6445V9.00089H96.2752ZM101.389 4.99521L103.571 9.00089H100.997L98.8661 4.99521H101.389Z" fill="#212121"/>
<path d="M103.811 9.00089V0.273615H106.18V3.80202H106.299L108.924 0.273615H111.686L108.737 4.15998L111.754 9.00089H108.924L106.964 5.72816L106.18 6.75089V9.00089H103.811Z" fill="#212121"/>
</svg>
