<svg width="93" height="93" viewBox="0 0 93 93" fill="none" xmlns="http://www.w3.org/2000/svg">
<rect width="93" height="93" fill="#212121"/>
<path d="M62.2 26H25C27.7 26.6 29.6 29 29.6 31.7V65.3C33.3 61.6 35.3 56.7 35.3 51.5V32.7C35.3 32.2 35.7 31.7 36.3 31.7C36.8 31.7 37.3 32.1 37.3 32.7V57.7C41 54 43 49.1 43 43.9V32.7C43 32.2 43.4 31.7 44 31.7C44.5 31.7 45 32.1 45 32.7V50.1L50 45.1C50.2 44.9 50.3 44.7 50.4 44.5V44.4C50.6 44.1 50.6 43.8 50.7 43.4C51.2 36.9 56.6 31.7 63.3 31.7H68L62.2 26Z" fill="white"/>
</svg>
