<svg width="93" height="93" viewBox="0 0 93 93" fill="none" xmlns="http://www.w3.org/2000/svg">
<rect width="93" height="93" fill="#212121"/>
<path d="M74.5704 55.3456H78L73.5151 50.6849C67.0956 44.0015 58.2139 40.2202 48.8924 40.2202H47.8372H45.5508H44.4076C35.174 40.2202 26.2923 44.0015 19.7848 50.6849L15.3 55.3456H18.7296C27.9631 55.3456 36.8449 51.5642 43.3523 44.8809L46.694 41.4513C44.7593 53.2351 27.9631 71.878 27.9631 71.878H46.7819H65.6007C65.6007 71.878 48.9804 53.4989 46.8698 41.7151L49.9477 44.9689C56.3672 51.5642 65.2489 55.3456 74.5704 55.3456Z" fill="white"/>
<path d="M43.8799 33.361L46.606 30.547L49.3321 33.361C54.6084 38.9011 61.9952 41.979 69.6459 41.979H72.4599L68.7665 38.1097C63.4902 32.5696 56.1034 29.4917 48.4527 29.4917H47.5733H45.6387H44.7593C37.1087 29.4917 29.8098 32.5696 24.4456 38.1097L20.7522 42.0669H23.5662C31.2168 42.0669 38.6036 38.9011 43.8799 33.361Z" fill="white"/>
<path d="M44.4076 23.6878L46.606 21.4014L48.8045 23.6878C53.1135 28.1727 59.0933 30.7229 65.3369 30.7229H67.6233L64.6334 27.5571C60.3244 23.0722 54.3446 20.522 48.101 20.522H47.3975H45.8146H45.1111C38.8675 20.522 32.8877 23.0722 28.5787 27.5571L25.5888 30.7229H27.8752C34.1188 30.7229 40.0986 28.1727 44.4076 23.6878Z" fill="white"/>
</svg>
