<svg width="32" height="32" viewBox="0 0 32 32" fill="none" xmlns="http://www.w3.org/2000/svg">
<g clip-path="url(#clip0_6_31018)">
<mask id="mask0_6_31018" style="mask-type:alpha" maskUnits="userSpaceOnUse" x="0" y="0" width="32" height="32">
<path d="M16 32C24.8366 32 32 24.8366 32 16C32 7.16344 24.8366 0 16 0C7.16344 0 0 7.16344 0 16C0 24.8366 7.16344 32 16 32Z" fill="white"/>
</mask>
<g mask="url(#mask0_6_31018)">
<path d="M0 0H32V32H0V0Z" fill="#EEEEEE"/>
<path d="M21.5625 16C21.5625 17.3938 19.075 20.875 16 20.875C12.925 20.875 10.4375 17.3938 10.4375 16C10.4375 14.5247 11.0235 13.1099 12.0667 12.0667C13.1099 11.0235 14.5247 10.4375 16 10.4375C17.4753 10.4375 18.8901 11.0235 19.9333 12.0667C20.9765 13.1099 21.5625 14.5247 21.5625 16Z" fill="#D80027"/>
<path d="M21.5625 16C21.5625 17.4753 20.9765 18.8901 19.9333 19.9333C18.8901 20.9765 17.4753 21.5625 16 21.5625C14.5247 21.5625 13.1099 20.9765 12.0667 19.9333C11.0235 18.8901 10.4375 17.4753 10.4375 16" fill="#0052B4"/>
<path d="M21.9 20.9187L23.3812 19.4437L24.3625 20.4249L22.8875 21.8999L21.9 20.9187ZM19.4437 23.3812L20.9187 21.8999L21.9 22.8874L20.425 24.3624L19.4437 23.3812ZM24.8562 23.8687L26.3312 22.3937L27.3125 23.3749L25.8375 24.8562L24.8562 23.8687ZM22.3937 26.3312L23.8687 24.8562L24.8562 25.8374L23.375 27.3124L22.3937 26.3312ZM23.3812 22.3937L24.8562 20.9187L25.8375 21.8999L24.3625 23.3812L23.3812 22.3937ZM20.9187 24.8562L22.3937 23.3812L23.3812 24.3624L21.9 25.8374L20.9187 24.8562ZM24.8562 11.0812L20.9187 7.14365L21.9062 6.1624L25.8437 10.0999L24.8562 11.0812ZM20.9187 10.0999L19.4437 8.61865L20.425 7.6374L21.9062 9.1124L20.9187 10.0999ZM23.3812 12.5562L21.9 11.0812L22.8875 10.0999L24.3625 11.5749L23.3812 12.5562ZM23.8687 7.14365L22.3937 5.66865L23.375 4.6874L24.8562 6.1624L23.8687 7.14365ZM26.3312 9.60615L24.8562 8.1249L25.8375 7.1374L27.3125 8.6249L26.3312 9.60615ZM5.66874 22.3937L9.60624 26.3312L8.61874 27.3124L4.68124 23.3749L5.66874 22.3937ZM9.60624 23.3749L11.0812 24.8562L10.1 25.8374L8.61874 24.3624L9.60624 23.3749ZM7.14374 20.9187L8.61874 22.3937L7.63749 23.3812L6.16249 21.8999L7.14374 20.9187ZM8.61874 19.4437L12.5562 23.3812L11.575 24.3624L7.63749 20.4249L8.61874 19.4437ZM9.60624 5.66865L5.66874 9.60615L4.68749 8.61865L8.62499 4.68115L9.60624 5.66865ZM11.0812 7.14365L7.14374 11.0812L6.16249 10.0937L10.1 6.15615L11.0812 7.14365ZM12.5562 8.61865L8.61874 12.5562L7.63749 11.5749L11.575 7.6374L12.5562 8.61865Z" fill="#333333"/>
</g>
</g>
<defs>
<clipPath id="clip0_6_31018">
<rect width="32" height="32" fill="white"/>
</clipPath>
</defs>
</svg>
