<svg width="93" height="93" viewBox="0 0 93 93" fill="none" xmlns="http://www.w3.org/2000/svg">
<rect width="93" height="93" fill="#212121"/>
<path d="M68.3651 58.5447H69V55.7894C69 53.1128 66.7778 50.9085 64.0794 50.9085C61.9365 50.9085 60.0317 49.334 59.7143 47.2872C59.4762 46.0277 59.873 44.7681 60.6667 43.7447C61.4603 42.8 62.7302 42.2489 64 42.2489C66.7778 42.2489 69 40.0447 69 37.2894V34.534H68.3651C64.1587 34.534 60.5079 31.8574 59.1587 28H50.8254V37.0532C50.8254 39.1787 49.2381 41.0681 47.1746 41.383C46.8571 41.4617 46.5397 41.4617 46.3016 41.4617C44 41.3043 42.1746 39.4149 42.1746 37.1319V28H33.8413C32.4921 31.8574 28.8413 34.534 24.6349 34.534H24V37.2894C24 39.966 26.2222 42.1702 28.9206 42.1702C31.0635 42.1702 32.9683 43.7447 33.2857 45.7915C33.5238 47.0511 33.127 48.3106 32.3333 49.334C31.5397 50.2787 30.2698 50.8298 29 50.8298C26.2222 50.8298 24 53.034 24 55.7106V58.466H24.6349C28.8413 58.466 32.4921 61.1426 33.8413 65H42.1746V55.9468C42.1746 53.8213 43.7619 51.9319 45.8254 51.617C46.0635 51.5383 46.381 51.5383 46.619 51.5383C49 51.6958 50.8254 53.5851 50.8254 55.8681V65H59.1587C60.4286 61.2213 64.1587 58.5447 68.3651 58.5447Z" fill="white"/>
</svg>
