<svg width="93" height="93" viewBox="0 0 93 93" fill="none" xmlns="http://www.w3.org/2000/svg">
<rect width="93" height="93" fill="#212121"/>
<path d="M49 55.6C49 50.1 53.5 45.7 59 45.7H62.7C65.8 45.7 68.3 43.2 68.3 40.1H59C58.2 40.1 57.4 40.2 56.7 40.3C55 40.5 54.5 38.1 56.1 37.6C57 37.3 58 37.2 59 37.2H62.7C65.8 37.2 68.3 34.7 68.3 31.6H59C58 31.6 57.1 31.7 56.2 31.9C54.6 32.2 53.9 29.9 55.5 29.3C56.6 28.9 57.8 28.6 59.1 28.6H62.7C65.8 28.6 68.3 26.1 68.3 23H59.1C50.5 23 43.3 29.9 43.4 38.4C43.5 44 39 48.5 33.4 48.5H29.9C26.8 48.5 24.3 51 24.3 54.1H33.3C34.3 54.1 35.2 54 36.1 53.8C37.7 53.5 38.4 55.8 36.8 56.4C35.7 56.8 34.5 57.1 33.2 57.1H29.7C26.6 57.1 24.1 59.6 24.1 62.7H33.1C33.9 62.7 34.7 62.6 35.4 62.5C37.1 62.3 37.6 64.7 36 65.2C35.1 65.5 34.1 65.6 33.1 65.6H29.6C26.5 65.6 24 68.1 24 71.2H33C42 71.2 49 64.2 49 55.6Z" fill="white"/>
</svg>
