<svg width="93" height="93" viewBox="0 0 93 93" fill="none" xmlns="http://www.w3.org/2000/svg">
<rect width="93" height="93" fill="#212121"/>
<path d="M22 35.1H35.5C37 35.1 38.2 36.3 38.2 37.8C38.2 39.3 37 40.5 35.5 40.5H22C22.5 47.3 28.2 52.6 35.1 52.6H35.6C37.1 52.6 38.3 53.8 38.3 55.3C38.3 56.8 37.1 58 35.6 58H35.1C28.2 58 22.5 63.3 22 70.1H57.9C64.8 70.1 70.5 64.8 71 58H57.5C56 58 54.8 56.8 54.8 55.3C54.8 53.8 56 52.6 57.5 52.6H71C70.5 45.8 64.8 40.5 57.9 40.5H57.4C55.9 40.5 54.7 39.3 54.7 37.8C54.7 36.3 55.9 35.1 57.4 35.1H57.9C64.8 35.1 70.5 29.8 71 23H35.1C28.2 23 22.5 28.3 22 35.1Z" fill="white"/>
</svg>
